<svg xmlns="http://www.w3.org/2000/svg" viewBox="0 0 72 72" fill="none">
  <defs>
    <linearGradient id="bg" x1="8" y1="8" x2="64" y2="64" gradientUnits="userSpaceOnUse">
      <stop stop-color="#0F766E"/>
      <stop offset="1" stop-color="#D97706"/>
    </linearGradient>
  </defs>
  <rect x="6" y="6" width="60" height="60" rx="16" fill="url(#bg)"/>
  <path d="M19 15h34a4 4 0 0 1 4 4v34a4 4 0 0 1-4 4H19a4 4 0 0 1-4-4V19a4 4 0 0 1 4-4Z" fill="#fff"/>
  <path d="M24 22h24v25H24z" fill="#DDEAFE"/>
  <path d="M24 42c4.8-5.8 9.1-6.4 13-1.8 3.8-7.1 8.1-8.2 13-3.2v10H24v-5Z" fill="#0F766E"/>
  <path d="M13 40c7.4-2.4 12.9-2 16.5 1.3 2.9 2.7 6.2 4 10 3.9 5.8-.2 10.7-3.1 14.5-8.7" stroke="#fff" stroke-width="5" stroke-linecap="round"/>
  <path d="M18 55h36" stroke="#E5E7EB" stroke-width="4" stroke-linecap="round"/>
</svg>
