<svg xmlns="http://www.w3.org/2000/svg" viewBox="0 0 72 72" fill="none">
  <defs>
    <linearGradient id="bg" x1="8" y1="8" x2="64" y2="64" gradientUnits="userSpaceOnUse">
      <stop stop-color="#0F766E"/>
      <stop offset="1" stop-color="#0369A1"/>
    </linearGradient>
  </defs>
  <rect x="6" y="6" width="60" height="60" rx="16" fill="url(#bg)"/>
  <circle cx="31" cy="36" r="14" stroke="#fff" stroke-width="3"/>
  <path d="M17 36H45M31 22C34.5 26 36.3 30.8 36.3 36C36.3 41.2 34.5 46 31 50M31 22C27.5 26 25.7 30.8 25.7 36C25.7 41.2 27.5 46 31 50" stroke="#fff" stroke-width="2.6" stroke-linecap="round"/>
  <path d="M48 29C48 34.5 42.8 39.2 42.8 39.2C42.8 39.2 37.6 34.5 37.6 29C37.6 25.9 39.9 23.5 42.8 23.5C45.7 23.5 48 25.9 48 29Z" fill="#fff"/>
  <circle cx="42.8" cy="29" r="2" fill="#0F766E"/>
</svg>
