<svg xmlns="http://www.w3.org/2000/svg" viewBox="0 0 72 72" fill="none">
  <defs>
    <linearGradient id="bg" x1="8" y1="8" x2="64" y2="64" gradientUnits="userSpaceOnUse">
      <stop stop-color="#0F766E"/>
      <stop offset="1" stop-color="#0F4C81"/>
    </linearGradient>
  </defs>
  <rect x="6" y="6" width="60" height="60" rx="16" fill="url(#bg)"/>
  <g stroke="#fff" stroke-width="2.8" stroke-linejoin="round">
    <rect x="16" y="16" width="14" height="14" rx="2"/>
    <rect x="20.5" y="20.5" width="5" height="5" rx="1.2" fill="#fff" stroke="#fff"/>
    <rect x="42" y="16" width="14" height="14" rx="2"/>
    <rect x="46.5" y="20.5" width="5" height="5" rx="1.2" fill="#fff" stroke="#fff"/>
    <rect x="16" y="42" width="14" height="14" rx="2"/>
    <rect x="20.5" y="46.5" width="5" height="5" rx="1.2" fill="#fff" stroke="#fff"/>
  </g>
  <g fill="#fff">
    <rect x="40" y="40" width="5" height="5" rx="1.2"/>
    <rect x="48" y="40" width="8" height="5" rx="1.2"/>
    <rect x="40" y="48" width="5" height="8" rx="1.2"/>
    <rect x="48" y="49" width="3.5" height="3.5" rx="1"/>
    <rect x="53" y="53" width="3.5" height="3.5" rx="1"/>
  </g>
</svg>
