<svg xmlns="http://www.w3.org/2000/svg" viewBox="0 0 72 72" fill="none">
  <defs>
    <linearGradient id="bg" x1="8" y1="8" x2="64" y2="64" gradientUnits="userSpaceOnUse">
      <stop stop-color="#0F766E"/>
      <stop offset="1" stop-color="#0F4C81"/>
    </linearGradient>
  </defs>
  <rect x="6" y="6" width="60" height="60" rx="16" fill="url(#bg)"/>
  <rect x="15" y="19" width="42" height="30" rx="5" stroke="#fff" stroke-width="3"/>
  <path d="M19.5 44L28 35L34 40L41 32L52 44" stroke="#fff" stroke-width="3" stroke-linecap="round" stroke-linejoin="round"/>
  <path d="M48 28C48 34 42.5 38.9 42.5 38.9C42.5 38.9 37 34 37 28C37 24.7 39.4 22.1 42.5 22.1C45.6 22.1 48 24.7 48 28Z" fill="#fff"/>
  <path d="M28 30L31 37L34 30L37 37L40 30" stroke="#fff" stroke-width="2.8" stroke-linecap="round" stroke-linejoin="round"/>
</svg>
